<?xml version="1.0" encoding="UTF-8"?>
<svg width="35px" height="32px" viewBox="0 0 35 32" version="1.1" xmlns="http://www.w3.org/2000/svg" xmlns:xlink="http://www.w3.org/1999/xlink">
    <!-- Generator: Sketch 50.2 (55047) - http://www.bohemiancoding.com/sketch -->
    <title>PREVIOUS</title>
    <desc>Created with Sketch.</desc>
    <defs></defs>
    <g id="Welcome" stroke="none" stroke-width="1" fill="none" fill-rule="evenodd">
        <g id="Desktop-HD" transform="translate(-629.000000, -842.000000)" fill="#FFFFFF" fill-rule="nonzero">
            <g id="MEET-THE-CREW" transform="translate(0.000000, -38.000000)">
                <g id="NAV" transform="translate(629.000000, 880.000000)">
                    <g id="PREVIOUS" transform="translate(18.000000, 16.500000) scale(-1, 1) rotate(-270.000000) translate(-18.000000, -16.500000) translate(2.000000, -1.000000)">
                        <path d="M15.5183997,34.1481258 C14.7622941,34.1481258 14.1494103,33.535193 14.1494103,32.7791363 L14.1494103,3.8176327 C14.1494103,3.06152703 14.7623431,2.44864325 15.5183997,2.44864325 C16.2745054,2.44864325 16.8873892,3.06157605 16.8873892,3.8176327 L16.8873892,32.7791363 C16.8873892,33.535193 16.2745054,34.1481258 15.5183997,34.1481258 Z" id="Shape"></path>
                        <path d="M29.6914353,16.8918986 C29.3409289,16.8920456 28.9907166,16.7583326 28.7232906,16.4909067 L15.5377117,3.30518069 L2.35183859,16.4909067 C1.8172808,17.0257096 0.950352182,17.0257096 0.415794397,16.4909067 C-0.118910433,15.9563489 -0.118910433,15.0894203 0.415794397,14.5548625 L14.5696651,0.400991861 C14.8263567,0.144202183 15.1745594,0 15.5377117,0 C15.9008639,0 16.2490666,0.144202183 16.5057092,0.400991861 L30.6595799,14.5548625 C31.1941377,15.0894203 31.1941377,15.9563489 30.6595799,16.4909067 C30.392154,16.7581856 30.0416476,16.8918986 29.6914353,16.8918986 Z" id="Shape"></path>
                    </g>
                </g>
            </g>
        </g>
    </g>
</svg>