<?xml version="1.0" encoding="UTF-8"?>
<svg width="350px" height="171px" viewBox="0 0 350 171" version="1.1" xmlns="http://www.w3.org/2000/svg" xmlns:xlink="http://www.w3.org/1999/xlink">
    <!-- Generator: Sketch 50.2 (55047) - http://www.bohemiancoding.com/sketch -->
    <title>CLOCK_DIGITS</title>
    <desc>Created with Sketch.</desc>
    <defs></defs>
    <g id="Welcome" stroke="none" stroke-width="1" fill="none" fill-rule="evenodd">
        <g id="Desktop-HD" transform="translate(-547.000000, 0.000000)" fill="#FFFFFF">
            <g id="WELCOME-SCREEN" transform="translate(465.000000, -179.000000)">
                <g id="CLOCK_DIGITS" transform="translate(82.000000, 0.000000)">
                    <path d="M173.353944,349.499229 L173.353944,348.62461 C174.274596,348.501442 175.004897,348.256349 175.541115,347.888088 C176.078577,347.519827 176.515264,346.927624 176.853666,346.115211 C177.192068,345.301553 177.498123,344.142029 177.774318,342.639127 L178.280677,340.106089 C178.464808,339.001307 178.602905,338.156546 178.694971,337.574296 L185.370943,286.051368 L186.19953,286.051368 L195.132344,348.62461 L197.665381,348.62461 L197.665381,349.499229 L186.6611,349.499229 L186.6611,348.62461 L189.054795,348.62461 L183.667736,306.034496 L179.56959,337.528263 C179.109264,340.996883 178.879101,343.283583 178.879101,344.388366 C178.879101,345.769344 179.178935,346.774597 179.777359,347.404124 C180.375783,348.033651 181.410894,348.440479 182.885182,348.62461 L182.885182,349.499229 L173.353944,349.499229 Z" id="Fill-6"></path>
                    <polygon id="Fill-8" points="160.920537 286.649792 160.920537 287.525656 164.234885 287.525656 164.234885 348.62461 160.920537 348.62461 160.920537 349.499229 173.167699 349.499229 173.167699 348.62461 169.898139 348.62461 169.898139 287.525656 173.167699 287.525656 173.167699 286.649792"></polygon>
                    <polygon id="Fill-9" points="61.9738226 179.510144 61.9738226 182.825736 0.874868349 182.825736 0.874868349 179.510144 0.0002488249 179.510144 0.0002488249 191.75855 0.874868349 191.75855 0.874868349 188.488991 61.9738226 188.488991 61.9738226 191.75855 62.8484421 191.75855 62.8484421 179.510144"></polygon>
                    <path d="M0,154.737884 L0.874619524,154.737884 C1.08985306,156.0579 1.82637477,157.10172 3.08418464,157.869345 C4.34323863,158.63697 6.49184165,159.373492 9.52999368,160.07891 L27.0273607,164.223089 L61.9735738,156.579188 L61.9735738,154.13946 L62.8481933,154.13946 L62.8481933,165.189774 L61.9735738,165.189774 L61.9735738,162.104345 L34.0715936,168.366024 L51.2915208,172.46417 C54.1156834,173.139729 56.4023842,173.476887 58.1516233,173.476887 C59.2564059,173.476887 60.1011664,173.200691 60.6846608,172.6483 C61.266911,172.095909 61.6973781,171.129224 61.9735738,169.748246 L62.8481933,169.748246 L62.8481933,179.048077 L61.9735738,179.048077 C61.5754539,177.606136 60.9297533,176.623278 60.0389602,176.10199 C59.3646447,175.672767 57.8916013,175.135305 55.6198299,174.490849 C53.3169555,173.845148 51.7978795,173.430854 51.0613578,173.246724 L32.0001263,168.827594 L0.874619524,175.687696 L0.874619524,178.173457 L0,178.173457 L0,167.169176 L0.874619524,167.169176 L0.874619524,170.208572 L25.1387797,164.637383 L24.8165514,164.637383 L8.93156979,160.861465 C7.27439596,160.432242 5.81752617,160.217008 4.55847217,160.217008 C2.53179336,160.217008 1.3050866,161.476062 0.874619524,163.992926 L0,163.992926 L0,154.737884 Z" id="Fill-10"></path>
                    <polygon id="Fill-13" points="348.353616 168.625424 348.353616 171.893739 287.255906 171.893739 287.255906 168.625424 286.380042 168.625424 286.380042 180.871341 287.255906 180.871341 287.255906 177.556993 348.353616 177.556993 348.353616 180.871341 349.22948 180.871341 349.22948 168.625424"></polygon>
                    <polygon id="Fill-14" points="348.353616 181.841385 348.353616 185.1097 287.255906 185.1097 287.255906 181.841385 286.380042 181.841385 286.380042 194.088547 287.255906 194.088547 287.255906 190.772955 348.353616 190.772955 348.353616 194.088547 349.22948 194.088547 349.22948 181.841385"></polygon>
                    <g id="Group-22" transform="translate(17.771389, 76.416301)">
                        <path d="M241.601199,251.698917 L241.164511,250.941245 C241.899789,250.373924 242.408636,249.79665 242.689808,249.209424 C242.97098,248.622197 243.054336,247.890652 242.939877,247.01852 C242.825417,246.145145 242.511898,244.986865 241.999319,243.547413 L241.171976,241.10022 C240.778833,240.051423 240.475266,239.251451 240.263765,238.700304 L220.28437,190.743037 L221.00223,190.328743 L260.024195,240.051423 L262.217586,238.786149 L262.655518,239.542576 L253.125524,245.045339 L252.687592,244.287667 L254.761548,243.090819 L228.800402,208.89979 L240.999043,238.223804 C242.333988,241.457284 243.278279,243.55239 243.83067,244.510365 C244.521159,245.705969 245.283807,246.427561 246.116127,246.672654 C246.94969,246.91899 248.05074,246.752278 249.418033,246.175004 L249.855965,246.93392 L241.601199,251.698917 Z" id="Fill-18"></path>
                    </g>
                    <polygon id="Fill-23" points="330.563507 257.616654 329.805835 257.179966 331.463009 254.308527 278.54915 223.75905 276.891976 226.629245 276.134304 226.192557 282.257885 215.586396 283.015556 216.023084 281.380777 218.854711 334.294636 249.404188 335.929416 246.572561 336.687087 247.010492"></polygon>
                    <g id="Group-28" transform="translate(26.684599, 236.283900)">
                        <path d="M291.331165,43.0666137 L290.573493,42.6286819 C290.926825,41.770236 291.079852,41.0162965 291.028843,40.3668636 C290.979078,39.7174306 290.685465,39.041871 290.150491,38.3439171 C289.614273,37.6447191 288.763292,36.7999586 287.600036,35.8083914 L285.660446,34.1039408 C284.795779,33.3910575 284.132661,32.8498633 283.674823,32.4778701 L242.392284,0.935581625 L242.806577,0.217721788 L301.462071,23.7677545 L302.72859,21.5756071 L303.486262,22.0122948 L297.984743,31.5422885 L297.227071,31.1056008 L298.423919,29.0316452 L258.84583,12.4026771 L284.071699,31.697804 C286.844852,33.8302334 288.711039,35.1738879 289.667771,35.7262792 C290.864619,36.4167683 291.883557,36.6606167 292.728317,36.4565802 C293.571834,36.2525438 294.442721,35.5595665 295.33849,34.37516 L296.096162,34.8118477 L291.331165,43.0666137 Z" id="Fill-24"></path>
                        <path d="M0.041061176,32.0087107 L0.798732997,31.572023 C1.36605377,32.3073006 1.94332754,32.8161475 2.5305543,33.0973197 C3.11778107,33.3784918 3.84932627,33.4618482 4.72145755,33.3473887 C5.59483295,33.2329293 6.75186873,32.9194099 8.19256491,32.4068306 L10.6385137,31.5794878 C11.6885548,31.1863445 12.4885268,30.8827781 13.039674,30.672521 L60.9969411,10.6918815 L61.4112346,11.4097414 L11.6885548,50.4329505 L12.9538294,52.6250978 L12.1961575,53.0630297 L6.69463901,43.533036 L7.45231083,43.0951042 L8.6491586,45.1690597 L42.8401881,19.2079138 L13.5161736,31.4065545 C10.2826941,32.7415001 8.18634428,33.6857906 7.22961254,34.2381819 C6.0340089,34.9286709 5.31241669,35.6913193 5.06732416,36.5236386 C4.82098751,37.357202 4.98645607,38.457008 5.56372984,39.825545 L4.80605801,40.2634768 L0.041061176,32.0087107 Z" id="Fill-26"></path>
                    </g>
                    <polygon id="Fill-29" points="20.5086459 257.524837 21.2663177 257.086906 22.9234916 259.958345 75.8385948 229.408868 74.1801769 226.537429 74.9378487 226.100741 81.0614295 236.706902 80.3037577 237.144834 78.6702222 234.313207 25.7551189 264.862684 27.3898985 267.694311 26.6322267 268.132243"></polygon>
                    <polygon id="Fill-30" points="13.9008519 246.079265 14.6585237 245.641333 16.3156975 248.512773 69.2295567 217.963296 67.5723828 215.091856 68.3300547 214.655169 74.4536355 225.26133 73.6959636 225.699262 72.061184 222.867634 19.1473249 253.417112 20.7821045 256.248739 20.0244327 256.685427"></polygon>
                    <polygon id="Fill-31" points="7.29268459 234.633444 8.05035641 234.196757 9.70753024 237.066952 62.6213894 206.517475 60.9642156 203.646035 61.7218874 203.209348 67.8454682 213.815509 67.0877963 214.253441 65.4530168 211.421813 12.5391576 241.971291 14.1739372 244.802918 13.4162654 245.24085"></polygon>
                    <path d="M88.2447555,328.210517 L88.6826874,327.452846 C89.5411333,327.806177 90.2963168,327.959204 90.9445057,327.909439 C91.5939387,327.85843 92.2682542,327.564817 92.9674522,327.029843 C93.6666501,326.493626 94.5126548,325.643889 95.5029779,324.479388 L97.2074285,322.539798 C97.9203118,321.675131 98.4615059,321.012013 98.8334992,320.554175 L130.375788,279.271636 L131.093647,279.68593 L107.543615,338.342667 L109.735762,339.607942 L109.299074,340.365614 L99.7690808,334.864095 L100.205768,334.106423 L102.279724,335.303271 L118.908692,295.725183 L99.6135652,320.951051 C97.4811358,323.724205 96.1374814,325.590391 95.5850901,326.547123 C94.894601,327.742727 94.6519967,328.762909 94.854789,329.607669 C95.0588254,330.451186 95.7530469,331.322073 96.9362093,332.219087 L96.4995216,332.975514 L88.2447555,328.210517 Z" id="Fill-34"></path>
                    <polygon id="Fill-36" points="77.476858 321.993876 77.9147898 321.236204 80.784985 322.893378 111.335706 269.979519 108.464267 268.322345 108.900955 267.564673 119.50836 273.688254 119.070428 274.445926 116.240045 272.811146 85.6905679 325.725006 88.5209512 327.359785 88.0830194 328.117457"></polygon>
                    <polygon id="Fill-37" points="66.0311614 315.385584 66.4690932 314.627913 69.3392885 316.285086 99.8887656 263.371227 97.0185704 261.714053 97.4552581 260.956382 108.062664 267.079962 107.624732 267.837634 104.794348 266.202855 74.2448714 319.116714 77.0752546 320.751493 76.6373228 321.509165"></polygon>
                </g>
            </g>
        </g>
    </g>
</svg>