<?xml version="1.0" encoding="UTF-8"?>
<svg width="29px" height="29px" viewBox="0 0 29 29" version="1.1" xmlns="http://www.w3.org/2000/svg" xmlns:xlink="http://www.w3.org/1999/xlink">
    <!-- Generator: Sketch 50.2 (55047) - http://www.bohemiancoding.com/sketch -->
    <title>FACEBOOK</title>
    <desc>Created with Sketch.</desc>
    <defs></defs>
    <g id="Welcome" stroke="none" stroke-width="1" fill="none" fill-rule="evenodd">
        <g id="Desktop-HD" transform="translate(-389.000000, -841.000000)" fill="#FEFEFE">
            <g id="MEET-THE-CREW" transform="translate(0.000000, -38.000000)">
                <g id="SOCIAL-ICONS-Copy" transform="translate(346.000000, 879.000000)">
                    <g id="FACEBOOK" transform="translate(43.000000, 0.000000)">
                        <path d="M17.6947946,14.3737485 L15.6814407,14.3737485 L15.6814407,21.5524957 L12.6982285,21.5524957 L12.6982285,14.3737485 L11.2784638,14.3737485 L11.2784638,11.8377487 L12.6982285,11.8377487 L12.6982285,10.1961738 C12.6982285,9.02066967 13.255897,7.18422509 15.7083812,7.18422509 L17.9184008,7.19320526 L17.9184008,9.65556763 L16.3145426,9.65556763 C16.0532197,9.65556763 15.6814407,9.78578008 15.6814407,10.3470406 L15.6814407,11.8377487 L17.9561175,11.8377487 L17.6947946,14.3737485 Z M14.6163926,8.98016911e-05 C6.68151522,8.98016911e-05 0.248122072,6.43348295 0.248122072,14.3683604 C0.248122072,22.3050338 6.68151522,28.7366309 14.6163926,28.7366309 C22.5521681,28.7366309 28.9846632,22.3050338 28.9846632,14.3683604 C28.9846632,6.43348295 22.5521681,8.98016911e-05 14.6163926,8.98016911e-05 Z" id="Fill-1"></path>
                    </g>
                </g>
            </g>
        </g>
    </g>
</svg>