<?xml version="1.0" encoding="UTF-8"?>
<svg width="577px" height="578px" viewBox="0 0 577 578" version="1.1" xmlns="http://www.w3.org/2000/svg" xmlns:xlink="http://www.w3.org/1999/xlink">
    <!-- Generator: Sketch 50.2 (55047) - http://www.bohemiancoding.com/sketch -->
    <title>CLOCK</title>
    <desc>Created with Sketch.</desc>
    <defs>
        <polygon id="path-1" points="41.2597738 0.0200242313 0.12798474 0.0200242313 0.12798474 103.797981 41.2597738 103.797981 41.2597738 0.0200242313"></polygon>
    </defs>
    <g id="Welcome" stroke="none" stroke-width="1" fill="none" fill-rule="evenodd">
        <g id="Desktop-HD" transform="translate(-432.000000, -331.000000)">
            <g id="TRANSITION-1" transform="translate(0.000000, -60.000000)">
                <g id="CLOCK" transform="translate(432.000000, 391.000000)">
                    <g id="Group-3" transform="translate(248.573893, 0.419230)">
                        <mask id="mask-2" fill="white">
                            <use xlink:href="#path-1"></use>
                        </mask>
                        <g id="Clip-2"></g>
                        <path d="M40.2716412,0.0194079324 L40.2716412,1.46360171 C38.0919974,1.81900074 36.3684148,3.03516392 35.1008934,5.11414557 C33.833372,7.19312722 32.6172088,10.7389003 31.4524039,15.7576277 L24.6094317,44.6476662 L37.229179,102.351733 L41.2597738,102.351733 L41.2597738,103.797981 L23.0132175,103.797981 L23.0132175,102.351733 L28.1079551,102.351733 L17.7664595,56.2792809 L11.0015518,84.7153125 C9.88605078,89.3786409 9.3272731,93.1544988 9.3272731,96.0428864 C9.3272731,97.8671312 9.78333429,99.262021 10.697511,100.223447 C11.6096334,101.186928 13.2058476,101.895672 15.4861535,102.351733 L15.4861535,103.797981 L0.12798474,103.797981 L0.12798474,102.351733 C2.51100718,101.694347 4.13187331,100.630205 4.99469178,99.1593045 C5.70343552,98.0458578 6.59090595,95.6135315 7.65504873,91.8602711 C8.71919151,88.0597612 9.4032833,85.5514246 9.70732409,84.3352615 L17.0063575,52.8588219 L5.67878357,1.46360171 L1.57217851,1.46360171 L1.57217851,0.0194079324 L19.7427246,0.0194079324 L19.7427246,1.46360171 L14.7260515,1.46360171 L23.9253399,41.531248 L23.9253399,40.9991766 L30.1602305,14.7694951 C30.8689742,12.0310736 31.2243733,9.62545357 31.2243733,7.54647192 C31.2243733,4.19996886 29.1453916,2.17439978 24.9894827,1.46360171 L24.9894827,0.0194079324 L40.2716412,0.0194079324 Z" id="Fill-1" fill="#FFFFFF" mask="url(#mask-2)"></path>
                    </g>
                    <polygon id="Fill-4" fill="#FFFFFF" points="290.674298 0.438432743 290.674298 1.88262652 296.071022 1.88262652 296.071022 102.770758 290.674298 102.770758 290.674298 104.217006 310.89712 104.217006 310.89712 102.770758 305.422331 102.770758 305.422331 1.88262652 310.89712 1.88262652 310.89712 0.438432743"></polygon>
                    <polygon id="Fill-5" fill="#FFFFFF" points="312.496826 0.438432743 312.496826 1.88262652 317.89355 1.88262652 317.89355 102.770758 312.496826 102.770758 312.496826 104.217006 332.719648 104.217006 332.719648 102.770758 327.244859 102.770758 327.244859 1.88262652 332.719648 1.88262652 332.719648 0.438432743"></polygon>
                    <path d="M286.246396,577.101925 L286.246396,575.657731 C287.7666,575.454353 288.972492,575.04965 289.857908,574.441568 C290.745378,573.833486 291.466448,572.855625 292.025225,571.514148 C292.584003,570.170617 293.089368,568.255981 293.545429,565.774351 L294.381542,561.591736 C294.685582,559.767491 294.913613,558.372601 295.065633,557.411175 L306.089167,472.335219 L307.45735,472.335219 L322.207437,575.657731 L326.390053,575.657731 L326.390053,577.101925 L308.219506,577.101925 L308.219506,575.657731 L312.172037,575.657731 L303.276789,505.331863 L296.509827,557.335165 C295.749725,563.062636 295.369674,566.838494 295.369674,568.662739 C295.369674,570.943045 295.864768,572.602943 296.8529,573.642434 C297.841033,574.681925 299.550235,575.35369 301.984616,575.657731 L301.984616,577.101925 L286.246396,577.101925 Z" id="Fill-6" fill="#FFFFFF"></path>
                    <polygon id="Fill-8" fill="#FFFFFF" points="265.716041 473.323352 265.716041 474.7696 271.188776 474.7696 271.188776 575.657731 265.716041 575.657731 265.716041 577.101925 285.938863 577.101925 285.938863 575.657731 280.540084 575.657731 280.540084 474.7696 285.938863 474.7696 285.938863 473.323352"></polygon>
                    <polygon id="Fill-9" fill="#FFFFFF" points="102.332736 296.411669 102.332736 301.886458 1.44460464 301.886458 1.44460464 296.411669 0.000410865938 296.411669 0.000410865938 316.636545 1.44460464 316.636545 1.44460464 311.237766 102.332736 311.237766 102.332736 316.636545 103.77693 316.636545 103.77693 296.411669"></polygon>
                    <path d="M0,255.507089 L1.44419377,255.507089 C1.79959281,257.686733 3.01575599,259.410315 5.09268331,260.677837 C7.17166495,261.945358 10.7194923,263.161521 15.7361654,264.326326 L44.6282582,271.169298 L102.332325,258.547497 L102.332325,254.518956 L103.776519,254.518956 L103.776519,272.765513 L102.332325,272.765513 L102.332325,267.670775 L56.2598729,278.010216 L84.6938502,284.777178 C89.3571786,285.892679 93.1330366,286.449403 96.0214241,286.449403 C97.8456689,286.449403 99.2405587,285.993341 100.204039,285.081219 C101.165466,284.169097 101.876264,282.572882 102.332325,280.292576 L103.776519,280.292576 L103.776519,295.648691 L102.332325,295.648691 C101.674939,293.267723 100.608742,291.644802 99.1378423,290.784038 C98.0243956,290.075294 95.5920692,289.187824 91.8408632,288.123681 C88.0382989,287.057484 85.5299624,286.373392 84.3137992,286.069352 L52.839414,278.772373 L1.44419377,290.099946 L1.44419377,294.204497 L0,294.204497 L0,276.033951 L1.44419377,276.033951 L1.44419377,281.052678 L41.5097858,271.85339 L40.9777144,271.85339 L14.7480329,265.6185 C12.0116657,264.909756 9.60604564,264.554357 7.52706399,264.554357 C4.18056092,264.554357 2.15499185,266.633338 1.44419377,270.789247 L0,270.789247 L0,255.507089 Z" id="Fill-10" fill="#FFFFFF"></path>
                    <polygon id="Fill-12" fill="#FFFFFF" points="575.210259 256.616016 575.210259 262.01274 474.324183 262.01274 474.324183 256.616016 472.877934 256.616016 472.877934 276.838837 474.324183 276.838837 474.324183 271.364049 575.210259 271.364049 575.210259 276.838837 576.656507 276.838837 576.656507 256.616016"></polygon>
                    <polygon id="Fill-13" fill="#FFFFFF" points="575.210259 278.438544 575.210259 283.835268 474.324183 283.835268 474.324183 278.438544 472.877934 278.438544 472.877934 298.659311 474.324183 298.659311 474.324183 293.186577 575.210259 293.186577 575.210259 298.659311 576.656507 298.659311 576.656507 278.438544"></polygon>
                    <polygon id="Fill-14" fill="#FFFFFF" points="575.210259 300.261072 575.210259 305.657796 474.324183 305.657796 474.324183 300.261072 472.877934 300.261072 472.877934 320.483893 474.324183 320.483893 474.324183 315.009105 575.210259 315.009105 575.210259 320.483893 576.656507 320.483893 576.656507 300.261072"></polygon>
                    <path d="M148.759971,34.3872581 L149.483095,35.6383448 C147.771838,37.035289 146.888476,38.9519786 146.830955,41.384305 C146.771379,43.8186857 147.492449,47.4979902 148.99211,52.4263271 L157.511415,80.8664673 L197.29351,124.531245 L200.783816,122.518002 L201.504885,123.769089 L185.702981,132.890312 L184.979857,131.639226 L189.392558,129.093911 L157.400481,94.3634134 L165.757494,122.37009 C167.123624,126.96768 168.528785,130.515507 169.972979,133.017681 C170.887156,134.59746 171.978005,135.577376 173.249635,135.955372 C174.521265,136.333369 176.259228,136.148479 178.461469,135.402758 L179.184593,136.653844 L165.884863,144.332929 L165.161739,143.081842 C166.895593,141.321282 167.768683,139.589482 167.778955,137.884388 C167.836476,136.565508 167.388632,134.014031 166.435423,130.23201 C165.455508,126.408902 164.794014,123.894403 164.448886,122.688511 L155.031839,91.781121 L119.524805,52.9337465 L115.96876,54.9880762 L115.245636,53.7369894 L130.981801,44.6506892 L131.704925,45.901776 L127.360018,48.4101125 L155.360532,78.5101512 L155.093469,78.0499813 L147.377407,52.2167855 C146.623468,49.49069 145.72778,47.228873 144.688289,45.4292802 C143.016065,42.5326753 140.201633,41.8157142 136.249103,43.278397 L135.525979,42.0273102 L148.759971,34.3872581 Z" id="Fill-15" fill="#FFFFFF"></path>
                    <polygon id="Fill-17" fill="#FFFFFF" points="167.857225 23.3616706 168.578295 24.6127574 163.838956 27.3491245 214.283021 114.721821 219.024414 111.985454 219.745484 113.23654 202.232324 123.347951 201.509199 122.096864 206.184854 119.397475 155.740788 32.0247789 151.065134 34.7241681 150.34201 33.4730814"></polygon>
                    <g id="Group-22" transform="translate(29.344564, 126.180519)" fill="#FFFFFF">
                        <path d="M398.937981,415.611587 L398.216911,414.3605 C399.43102,413.423726 400.271241,412.470517 400.73552,411.500873 C401.199798,410.53123 401.337438,409.323284 401.14844,407.883199 C400.959442,406.441059 400.44175,404.528478 399.595367,402.151619 L398.229237,398.110752 C397.580069,396.378952 397.078813,395.058018 396.729577,394.14795 L363.739096,314.959704 L364.924444,314.275612 L429.358495,396.378952 L432.980278,394.289699 L433.703402,395.538732 L417.967237,404.625032 L417.244113,403.373945 L420.668681,401.39768 L377.800983,344.940591 L397.943686,393.361142 C400.147981,398.700345 401.707218,402.159836 402.61934,403.74167 C403.759493,405.715881 405.018797,406.907392 406.393144,407.312095 C407.769544,407.718852 409.587626,407.443572 411.845335,406.490363 L412.568459,407.743504 L398.937981,415.611587 Z" id="Fill-18"></path>
                        <path d="M19.549304,0.134500148 L20.8003908,0.8576242 C20.0176912,2.92222554 20.2087438,5.02380481 21.3756031,7.15825336 C22.5424624,9.29681057 25.0056037,12.1235682 28.7691357,15.6405807 L50.368358,36.0133682 L106.652883,53.9353404 L108.66818,50.4450343 L109.919267,51.1681584 L100.793935,66.9700623 L99.5449022,66.2469383 L102.090217,61.8362924 L57.0202776,47.7538624 L78.2620466,67.8308265 C81.7441354,71.13008 84.7352395,73.4987221 87.237413,74.9449702 C88.8171926,75.8570926 90.253169,76.1590791 91.5412337,75.8488753 C92.8334071,75.5407258 94.2447316,74.513561 95.7813702,72.7653264 L97.032457,73.4884505 L89.3533726,86.7881809 L88.1022858,86.0650568 C88.7226934,83.6738171 88.6117596,81.7386385 87.7694844,80.2554125 C87.1593485,79.0844445 85.4953414,77.099962 82.7795176,74.301965 C80.0184985,71.479316 78.1880907,69.6324736 77.28624,68.7614378 L53.6778832,46.7020456 L3.50498912,30.8159141 L1.45065943,34.3699045 L0.199572646,33.6488347 L9.28587287,17.9126693 L10.5369597,18.633739 L8.0286231,22.9807007 L47.3258958,35.0457789 L46.8657259,34.7807704 L27.2674207,16.2671512 C25.2521232,14.2847231 23.343651,12.7727364 21.5440581,11.7332456 C18.6474533,10.0610212 15.8535649,10.8478295 13.1603387,14.0916161 L11.9092519,13.368492 L19.549304,0.134500148 Z" id="Fill-20"></path>
                    </g>
                    <polygon id="Fill-23" fill="#FFFFFF" points="545.834783 425.383103 544.583696 424.662034 547.320063 419.920641 459.947367 369.476575 457.211 374.215914 455.959913 373.494844 466.071324 355.981683 467.322411 356.702753 464.623021 361.378407 551.995718 411.822473 554.695107 407.146819 555.946194 407.869943"></polygon>
                    <g id="Group-28" transform="translate(44.062282, 390.157923)" fill="#FFFFFF">
                        <path d="M481.053353,71.1126766 L479.802266,70.3895526 C480.385696,68.9720651 480.638379,67.7271413 480.554151,66.6547812 C480.471978,65.5824211 479.987156,64.4669201 479.103794,63.3144411 C478.218378,62.1599078 476.813217,60.765018 474.892418,59.1277172 L471.689718,56.3132855 C470.261959,55.1361546 469.167002,54.2425212 468.411008,53.6282766 L400.24424,1.54485593 L400.928332,0.359507696 L497.78176,39.2459144 L499.873068,35.6261855 L501.124154,36.3472552 L492.039908,52.0834207 L490.788822,51.362351 L492.765087,47.9377834 L427.412751,20.4796127 L469.066339,52.3402119 C473.64544,55.861333 476.726935,58.080009 478.306714,58.9921314 C480.28298,60.1322844 481.965476,60.534933 483.360365,60.198023 C484.753201,59.8611129 486.191232,58.7168512 487.670349,56.7611294 L488.921436,57.4821991 L481.053353,71.1126766 Z" id="Fill-24"></path>
                        <path d="M0.0678012474,52.8535889 L1.31888803,52.1325192 C2.25566237,53.346628 3.20887135,54.1868488 4.17851496,54.6511274 C5.14815858,55.1154059 6.35610443,55.253046 7.79618955,55.0640476 C9.23832899,54.8750493 11.1488556,54.3573582 13.5277694,53.5109744 L17.5665816,52.1448451 C19.3004358,51.495677 20.6213698,50.9944205 21.5314379,50.6472388 L100.719684,17.6547039 L101.403776,18.8400522 L19.3004358,83.2761573 L21.3896891,86.8958862 L20.1386023,87.6190102 L11.0543564,71.8828448 L12.3054432,71.1597208 L14.2817084,74.5842884 L70.738797,31.7165907 L22.3182461,51.8592933 C16.9790433,54.0635891 13.5174977,55.6228253 11.9377182,56.5349477 C9.96350737,57.6751007 8.77199615,58.9344048 8.3672932,60.3087513 C7.96053592,61.6851522 8.23376177,63.5011797 9.18697075,65.7609423 L7.93588397,66.4840664 L0.0678012474,52.8535889 Z" id="Fill-26"></path>
                    </g>
                    <polygon id="Fill-29" fill="#FFFFFF" points="33.8643924 425.231494 35.1154792 424.50837 37.8518463 429.249763 125.226597 378.805697 122.488175 374.064304 123.739262 373.343234 133.850673 390.856395 132.599586 391.579519 129.902251 386.903865 42.5275007 437.34793 45.2268899 442.023585 43.9758031 442.746709"></polygon>
                    <polygon id="Fill-30" fill="#FFFFFF" points="22.9534365 406.332277 24.2045233 405.609153 26.9408904 410.350546 114.313587 359.90648 111.577219 355.165087 112.828306 354.444018 122.939717 371.957178 121.68863 372.680302 118.989241 368.004648 31.6165448 418.448713 34.315934 423.124368 33.0648473 423.845438"></polygon>
                    <polygon id="Fill-31" fill="#FFFFFF" points="12.0418644 387.432649 13.2929511 386.711579 16.0293183 391.450918 103.402014 341.006853 100.665647 336.26546 101.916734 335.54439 112.028145 353.05755 110.777058 353.780675 108.077669 349.10502 20.7049727 399.549086 23.4043619 404.22474 22.1532751 404.947864"></polygon>
                    <polygon id="Fill-32" fill="#FFFFFF" points="541.469949 149.236819 540.218862 149.959943 537.482495 145.21855 450.109798 195.662616 452.846166 200.404009 451.595079 201.125079 441.483668 183.611918 442.734755 182.888794 445.434144 187.564448 532.80684 137.120383 530.107451 132.444728 531.358538 131.723659"></polygon>
                    <polygon id="Fill-33" fill="#FFFFFF" points="552.380493 168.136242 551.131461 168.859366 548.39304 164.117973 461.020343 214.562038 463.758765 219.303431 462.505624 220.024501 452.396267 202.51134 453.6453 201.788216 456.344689 206.463871 543.717385 156.019805 541.017996 151.344151 542.269083 150.621027"></polygon>
                    <path d="M145.711962,541.949468 L146.435086,540.698381 C147.852573,541.281811 149.099551,541.534493 150.169857,541.45232 C151.242217,541.368093 152.355664,540.883271 153.510197,539.999909 C154.66473,539.114493 156.061675,537.711386 157.696921,535.788533 L160.511353,532.585833 C161.688484,531.158074 162.582117,530.063116 163.196362,529.307123 L215.279782,461.140355 L216.46513,461.824447 L177.578724,558.679929 L181.198453,560.769182 L180.477383,562.020269 L164.741218,552.936023 L165.462287,551.684936 L168.886855,553.661201 L196.345025,488.308865 L164.484426,529.962454 C160.963305,534.541555 158.744629,537.62305 157.832507,539.202829 C156.692354,541.17704 156.291759,542.86159 156.626615,544.25648 C156.963525,545.649316 158.109841,547.087346 160.063509,548.568518 L159.342439,549.817551 L145.711962,541.949468 Z" id="Fill-34" fill="#FFFFFF"></path>
                    <polygon id="Fill-36" fill="#FFFFFF" points="127.931738 531.684393 128.654862 530.433306 133.394201 533.169674 183.840321 445.796977 179.098928 443.06061 179.819997 441.809524 197.335212 451.920934 196.612088 453.172021 191.938488 450.472632 141.494423 537.845328 146.168023 540.544717 145.444899 541.795804"></polygon>
                    <polygon id="Fill-37" fill="#FFFFFF" points="109.032316 520.772616 109.75544 519.521529 114.494778 522.257896 164.938844 434.8852 160.199505 432.148833 160.920575 430.897746 178.43579 441.009157 177.712666 442.260243 173.039066 439.560854 122.595 526.93355 127.2686 529.63294 126.545476 530.884026"></polygon>
                    <polygon id="Fill-38" fill="#FFFFFF" points="453.428774 45.8606894 452.707704 47.1117762 447.966311 44.375409 397.522245 131.748105 402.261584 134.484472 401.53846 135.735559 384.025299 125.624148 384.748423 124.373062 389.422023 127.072451 439.866089 39.6997546 435.192489 37.0003654 435.913559 35.7492786"></polygon>
                </g>
            </g>
        </g>
    </g>
</svg>