<?xml version="1.0" encoding="UTF-8"?>
<svg width="29px" height="29px" viewBox="0 0 29 29" version="1.1" xmlns="http://www.w3.org/2000/svg" xmlns:xlink="http://www.w3.org/1999/xlink">
    <!-- Generator: Sketch 50.2 (55047) - http://www.bohemiancoding.com/sketch -->
    <title>INSTAGRAM</title>
    <desc>Created with Sketch.</desc>
    <defs>
        <polygon id="path-1" points="28.7362717 0 0 0 0 28.7363615 28.7362717 28.7363615"></polygon>
    </defs>
    <g id="Welcome" stroke="none" stroke-width="1" fill="none" fill-rule="evenodd">
        <g id="Desktop-HD" transform="translate(-346.000000, -841.000000)">
            <g id="MEET-THE-CREW" transform="translate(0.000000, -38.000000)">
                <g id="SOCIAL-ICONS-Copy" transform="translate(346.000000, 879.000000)">
                    <g id="INSTAGRAM">
                        <path d="M12.0803929,14.3474366 C12.0803929,12.8755869 13.2729593,11.6830204 14.7448091,11.6830204 C16.2202508,11.6830204 17.4164094,12.8755869 17.4164094,14.3474366 C17.4164094,15.8156942 16.2202508,17.0082607 14.7448091,17.0082607 C13.2729593,17.0082607 12.0803929,15.8156942 12.0803929,14.3474366" id="Fill-4" fill="#FEFEFE"></path>
                        <path d="M19.8464431,10.8693273 C19.8464431,11.1099958 19.6515735,11.3048655 19.4118029,11.3048655 L18.0108966,11.3048655 C17.770228,11.3048655 17.5753584,11.1099958 17.5753584,10.8693273 L17.5753584,9.4684209 C17.5753584,9.22865039 17.770228,9.03378072 18.0108966,9.03378072 L19.4118029,9.03378072 C19.6515735,9.03378072 19.8464431,9.22865039 19.8464431,9.4684209 L19.8464431,10.8693273 Z" id="Fill-6" fill="#FEFEFE"></path>
                        <path d="M18.6314263,13.1968075 L20.2245083,13.1968075 L20.2245083,19.5323168 C20.2245083,19.7747814 20.1715253,20.0091638 19.9335508,20.0091638 L9.52553478,20.0091638 C9.2875603,20.0091638 9.24984359,19.7747814 9.24984359,19.5323168 L9.24984359,13.1968075 L10.8276593,13.1968075 C10.600461,13.1968075 10.5250276,14.0445355 10.5250276,14.4306827 C10.5250276,16.7511584 12.4207413,18.6010733 14.7448091,18.6010733 C17.076061,18.6010733 18.9681826,16.7709148 18.9681826,14.4513371 C18.9681826,14.0651899 18.9116075,13.1968075 18.6314263,13.1968075" id="Fill-8" fill="#FEFEFE"></path>
                        <mask id="mask-2" fill="white">
                            <use xlink:href="#path-1"></use>
                        </mask>
                        <g id="Clip-11"></g>
                        <path d="M21.738924,19.6232859 C21.738924,20.531181 20.9289127,21.1445266 20.0201196,21.1445266 L9.44237841,21.1445266 C8.53089125,21.1445266 7.73524826,20.531181 7.73524826,19.6232859 L7.73524826,9.03746259 C7.73524826,8.12956749 8.53089125,7.51981401 9.44237841,7.51981401 L20.0201196,7.51981401 C20.9289127,7.51981401 21.738924,8.12956749 21.738924,9.03746259 L21.738924,19.6232859 Z M14.3697972,-0.000179603382 C6.43402176,-0.000179603382 -0.000269405073,6.43321355 -0.000269405073,14.369887 C-0.000269405073,22.3029684 6.43402176,28.7363615 14.3697972,28.7363615 C22.3028786,28.7363615 28.7362717,22.3029684 28.7362717,14.369887 C28.7362717,6.43321355 22.3028786,-0.000179603382 14.3697972,-0.000179603382 Z" id="Fill-10" fill="#FEFEFE" mask="url(#mask-2)"></path>
                    </g>
                </g>
            </g>
        </g>
    </g>
</svg>