<?xml version="1.0" encoding="UTF-8"?>
<svg width="16px" height="15px" viewBox="0 0 16 15" version="1.1" xmlns="http://www.w3.org/2000/svg" xmlns:xlink="http://www.w3.org/1999/xlink">
    <!-- Generator: Sketch 50.2 (55047) - http://www.bohemiancoding.com/sketch -->
    <title>sandwich</title>
    <desc>Created with Sketch.</desc>
    <defs></defs>
    <g id="Welcome" stroke="none" stroke-width="1" fill="none" fill-rule="evenodd">
        <g id="Desktop-HD" transform="translate(-1197.000000, -37.000000)" fill="#FFFFFF" fill-rule="nonzero">
            <g id="REST-OF-TEAM" transform="translate(-19.000000, -77.000000)">
                <g id="MENU-Copy-2" transform="translate(1206.000000, 103.000000)">
                    <g id="sandwich" transform="translate(10.000000, 11.000000)">
                        <path d="M1.7387951,3.31334133 C0.787378912,3.31334133 0,2.59749089 0,1.66377294 C0,0.761178911 0.787378912,0.0142045455 1.7387951,0.0142045455 L14.2712428,0.0297665114 C15.222659,0.0297665114 16.0100379,0.776740877 16.0100379,1.6793349 C16.0100379,2.59749089 15.222659,3.32890329 14.2712428,3.32890329 L1.7387951,3.31334133 Z" id="Shape"></path>
                        <path d="M1.7387951,8.65492661 C0.787378912,8.65492661 0,7.93907618 0,7.00535822 C0,6.1027642 0.787378912,5.35578983 1.7387951,5.35578983 L14.2712428,5.3713518 C15.222659,5.3713518 16.0100379,6.11832616 16.0100379,7.02092019 C16.0100379,7.93907618 15.222659,8.67048858 14.2712428,8.67048858 L1.7387951,8.65492661 Z" id="Shape-Copy-3"></path>
                        <path d="M1.7387951,13.9965119 C0.787378912,13.9965119 0,13.2806615 0,12.3469435 C0,11.4443495 0.787378912,10.6973751 1.7387951,10.6973751 L14.2712428,10.7129371 C15.222659,10.7129371 16.0100379,11.4599114 16.0100379,12.3625055 C16.0100379,13.2806615 15.222659,14.0120739 14.2712428,14.0120739 L1.7387951,13.9965119 Z" id="Shape-Copy"></path>
                    </g>
                </g>
            </g>
        </g>
    </g>
</svg>