<?xml version="1.0" encoding="UTF-8"?>
<svg width="48px" height="48px" viewBox="0 0 48 48" version="1.1" xmlns="http://www.w3.org/2000/svg" xmlns:xlink="http://www.w3.org/1999/xlink">
    <!-- Generator: Sketch 50.2 (55047) - http://www.bohemiancoding.com/sketch -->
    <title>SCROLL DOWN ICON</title>
    <desc>Created with Sketch.</desc>
    <defs></defs>
    <g id="Welcome" stroke="none" stroke-width="1" fill="none" fill-rule="evenodd">
        <g id="Desktop-HD" transform="translate(-696.000000, -840.000000)">
            <g id="WELCOME-SCREEN" transform="translate(465.000000, -179.000000)">
                <g id="SCROLL-DOWN-ICON" transform="translate(232.000000, 1020.000000)">
                    <circle id="Oval" stroke="#FFFFFF" stroke-width="1.5" cx="23" cy="23" r="23"></circle>
                    <g id="ARROW" transform="translate(23.000000, 23.000000) rotate(-180.000000) translate(-23.000000, -23.000000) translate(14.000000, 13.000000)" fill="#FFFFFF" fill-rule="nonzero">
                        <g id="Group" transform="translate(0.000000, -0.000000)">
                            <path d="M8.95084678,19.6962732 C8.51473313,19.6962732 8.16122832,19.3427402 8.16122832,18.9066548 L8.16122832,2.20196966 C8.16122832,1.76585601 8.5147614,1.4123512 8.95084678,1.4123512 C9.38696043,1.4123512 9.74046523,1.76588428 9.74046523,2.20196966 L9.74046523,18.9066548 C9.74046523,19.3427402 9.38696043,19.6962732 8.95084678,19.6962732 Z" id="Shape"></path>
                            <path d="M17.1257019,9.74306619 C16.9235336,9.74315101 16.7215348,9.6660268 16.5672864,9.51177838 L8.96198568,1.90639282 L1.35651531,9.51177838 C1.04818811,9.82024694 0.548152961,9.82024694 0.239825755,9.51177838 C-0.0685862645,9.20345118 -0.0685862645,8.70341603 0.239825755,8.39508883 L8.40362677,0.231287811 C8.55168376,0.0831742746 8.75252334,0 8.96198568,0 C9.17144802,0 9.3722876,0.0831742746 9.52031633,0.231287811 L17.6841173,8.39508883 C17.9924445,8.70341603 17.9924445,9.20345118 17.6841173,9.51177838 C17.5298689,9.66594198 17.3277006,9.74306619 17.1257019,9.74306619 Z" id="Shape"></path>
                        </g>
                    </g>
                </g>
            </g>
        </g>
    </g>
</svg>